<svg id="Calque_1" data-name="Calque 1" xmlns="http://www.w3.org/2000/svg" viewBox="0 0 97.22 17.38"><title>icon-not-free</title><path d="M612.74,362.49l-10-13.58a9.62,9.62,0,0,1-.54-.82l-.15-.24h0c0,.21,0,.45,0,.74v13.9h-1.16v-16.8h.89l9.94,13.46c.21.3.45.66.71,1.08h.06q-.06-.83-.06-1.41V345.69h1.16v16.8Z" transform="translate(-600.86 -345.41)"/><path d="M624.79,362.78a7.22,7.22,0,0,1-5.68-2.36,8.9,8.9,0,0,1-2.12-6.16,9.24,9.24,0,0,1,2.18-6.43,7.55,7.55,0,0,1,5.93-2.42,7.09,7.09,0,0,1,5.51,2.32,8.76,8.76,0,0,1,2.1,6.1,9.42,9.42,0,0,1-2.16,6.56A7.35,7.35,0,0,1,624.79,362.78Zm.11-16.32a6.19,6.19,0,0,0-4.82,2.12,9.26,9.26,0,0,0-.1,11.08,6,6,0,0,0,4.78,2.06,6.28,6.28,0,0,0,4.94-2,8.19,8.19,0,0,0,1.81-5.66,8.09,8.09,0,0,0-1.77-5.56A6.15,6.15,0,0,0,624.9,346.46Z" transform="translate(-600.86 -345.41)"/><path d="M639.07,346.75v15.74h-1.15V346.75h-4.85v-1.06h10.85v1.06Z" transform="translate(-600.86 -345.41)"/><path d="M654.52,346.75v6.86h6.21v1.05h-6.21v7.83h-1.16v-16.8h7.85v1.06Z" transform="translate(-600.86 -345.41)"/><path d="M673.12,362.49l-2.24-4.92a5.25,5.25,0,0,0-1.39-2.05,2.82,2.82,0,0,0-1.73-.52h-2.09v7.49h-1.16v-16.8h4.67a4.91,4.91,0,0,1,3.5,1.2,4.19,4.19,0,0,1,1.27,3.17,4.47,4.47,0,0,1-1.05,3,4.78,4.78,0,0,1-2.91,1.57v0a4.54,4.54,0,0,1,1.94,2.43l2.5,5.35Zm-7.45-15.74V354h2.9a4.42,4.42,0,0,0,3-1,3.49,3.49,0,0,0,1.13-2.77,3.19,3.19,0,0,0-1-2.51,4.27,4.27,0,0,0-2.92-.91Z" transform="translate(-600.86 -345.41)"/><path d="M677.84,362.49v-16.8h7.85v1.06H679v6.74h6.21v1.06H679v6.89h7.08v1.05Z" transform="translate(-600.86 -345.41)"/><path d="M689.84,362.49v-16.8h7.85v1.06H691v6.74h6.21v1.06H691v6.89h7.08v1.05Z" transform="translate(-600.86 -345.41)"/></svg>