<svg id="Calque_1" data-name="Calque 1" xmlns="http://www.w3.org/2000/svg" viewBox="0 0 46.58 17.5"><title>icon-free</title><path d="M602.16,346.84V354h6.47v1.1h-6.47v8.15H601v-17.5h8.18v1.11Z" transform="translate(-600.95 -345.73)"/><path d="M621.53,363.23l-2.33-5.13a5.7,5.7,0,0,0-1.44-2.13,3,3,0,0,0-1.81-.54h-2.17v7.8h-1.21v-17.5h4.86a5.06,5.06,0,0,1,3.64,1.25,4.33,4.33,0,0,1,1.33,3.3,4.72,4.72,0,0,1-1.09,3.16,5.12,5.12,0,0,1-3,1.64v.05a4.68,4.68,0,0,1,2,2.52l2.6,5.58Zm-7.75-16.39v7.49h3a4.59,4.59,0,0,0,3.18-1.05,3.65,3.65,0,0,0,1.18-2.88,3.33,3.33,0,0,0-1.06-2.62,4.43,4.43,0,0,0-3-.94Z" transform="translate(-600.95 -345.73)"/><path d="M626.45,363.23v-17.5h8.18v1.11h-7v7h6.47V355h-6.47v7.18H635v1.1Z" transform="translate(-600.95 -345.73)"/><path d="M639,363.23v-17.5h8.18v1.11h-7v7h6.47V355h-6.47v7.18h7.37v1.1Z" transform="translate(-600.95 -345.73)"/></svg>